<svg xmlns="http://www.w3.org/2000/svg" viewBox="0 0 200 200">
  <defs>
    <linearGradient id="armGradient" x1="0%" y1="0%" x2="100%" y2="100%">
      <stop offset="0%" stop-color="#00a3ff" />
      <stop offset="100%" stop-color="#0f3b7d" />
    </linearGradient>
  </defs>
  <g fill="url(#armGradient)" stroke="#00a3ff" stroke-width="2">
    <path d="M60,60 L40,80 L40,140 L60,160 L80,140 L80,80 Z" />
    <path d="M120,60 L140,80 L140,140 L120,160 L100,140 L100,80 Z" />
    <rect x="60" y="70" width="20" height="80" />
    <rect x="100" y="70" width="20" height="80" />
    <path d="M40,100 L30,110 L30,130 L40,140" />
    <path d="M140,100 L150,110 L150,130 L140,140" />
  </g>
  <g fill="none" stroke="#00a3ff" stroke-width="1">
    <line x1="40" y1="100" x2="60" y2="100" />
    <line x1="40" y1="120" x2="60" y2="120" />
    <line x1="120" y1="100" x2="140" y2="100" />
    <line x1="120" y1="120" x2="140" y2="120" />
    <line x1="60" y1="90" x2="80" y2="90" />
    <line x1="60" y1="110" x2="80" y2="110" />
    <line x1="60" y1="130" x2="80" y2="130" />
    <line x1="100" y1="90" x2="120" y2="90" />
    <line x1="100" y1="110" x2="120" y2="110" />
    <line x1="100" y1="130" x2="120" y2="130" />
  </g>
  <g fill="#00a3ff" stroke="none">
    <circle cx="50" cy="90" r="3" />
    <circle cx="50" cy="130" r="3" />
    <circle cx="130" cy="90" r="3" />
    <circle cx="130" cy="130" r="3" />
  </g>
</svg>
