<svg xmlns="http://www.w3.org/2000/svg" width="100" height="100" viewBox="0 0 100 100">
  <defs>
    <pattern id="hexPattern" width="100" height="100" patternUnits="userSpaceOnUse">
      <path fill="none" stroke="#00a3ff" stroke-width="0.5" d="M50,16.7L68.3,27.9L68.3,50.4L50,61.6L31.7,50.4L31.7,27.9L50,16.7z" opacity="0.3" />
      <path fill="none" stroke="#00a3ff" stroke-width="0.5" d="M50,38.4L59.1,43.8L59.1,54.6L50,60L40.9,54.6L40.9,43.8L50,38.4z" opacity="0.5" />
      <path fill="none" stroke="#00a3ff" stroke-width="0.5" d="M0,50L18.3,61.2L18.3,83.7L0,94.9L-18.3,83.7L-18.3,61.2L0,50z" opacity="0.3" transform="translate(0,0)" />
      <path fill="none" stroke="#00a3ff" stroke-width="0.5" d="M100,50L118.3,61.2L118.3,83.7L100,94.9L81.7,83.7L81.7,61.2L100,50z" opacity="0.3" transform="translate(0,0)" />
      <path fill="none" stroke="#00a3ff" stroke-width="0.5" d="M25,5.4L43.3,16.6L43.3,39.1L25,50.3L6.7,39.1L6.7,16.6L25,5.4z" opacity="0.2" />
      <path fill="none" stroke="#00a3ff" stroke-width="0.5" d="M75,5.4L93.3,16.6L93.3,39.1L75,50.3L56.7,39.1L56.7,16.6L75,5.4z" opacity="0.2" />
      <path fill="none" stroke="#00a3ff" stroke-width="0.5" d="M25,50L43.3,61.2L43.3,83.7L25,94.9L6.7,83.7L6.7,61.2L25,50z" opacity="0.2" />
      <path fill="none" stroke="#00a3ff" stroke-width="0.5" d="M75,50L93.3,61.2L93.3,83.7L75,94.9L56.7,83.7L56.7,61.2L75,50z" opacity="0.2" />
    </pattern>
  </defs>
  <rect width="100%" height="100%" fill="url(#hexPattern)" />
</svg>
